<mxfile host="Electron" modified="2023-09-23T11:08:23.748Z" agent="Mozilla/5.0 (Windows NT 10.0; Win64; x64) AppleWebKit/537.36 (KHTML, like Gecko) draw.io/21.7.5 Chrome/114.0.5735.289 Electron/25.8.1 Safari/537.36" etag="YK5QtqjoTMlzOSjZQpZJ" version="21.7.5" type="device">
  <diagram name="第 1 页" id="KZVqRWUC-f8N79dPGjzY">
    <mxGraphModel dx="717" dy="422" grid="1" gridSize="10" guides="1" tooltips="1" connect="1" arrows="1" fold="1" page="1" pageScale="1" pageWidth="827" pageHeight="1169" math="0" shadow="0">
      <root>
        <mxCell id="0" />
        <mxCell id="1" parent="0" />
        <mxCell id="YggGBTT3aEdpHH1SZN4f-1" value="" style="whiteSpace=wrap;html=1;aspect=fixed;fillColor=#fff2cc;strokeColor=#d6b656;" parent="1" vertex="1">
          <mxGeometry x="330" y="460" width="80" height="80" as="geometry" />
        </mxCell>
        <mxCell id="YggGBTT3aEdpHH1SZN4f-3" value="(start_x, start_y)" style="text;html=1;align=center;verticalAlign=middle;resizable=0;points=[];autosize=1;strokeColor=none;fillColor=none;" parent="1" vertex="1">
          <mxGeometry x="315" y="320" width="110" height="30" as="geometry" />
        </mxCell>
        <mxCell id="YggGBTT3aEdpHH1SZN4f-11" value="2" style="whiteSpace=wrap;html=1;aspect=fixed;fillColor=#f8cecc;strokeColor=#b85450;" parent="1" vertex="1">
          <mxGeometry x="359.5" y="440" width="20" height="20" as="geometry" />
        </mxCell>
        <mxCell id="YggGBTT3aEdpHH1SZN4f-12" value="" style="endArrow=none;html=1;rounded=0;entryX=0.509;entryY=0.933;entryDx=0;entryDy=0;entryPerimeter=0;" parent="1" target="YggGBTT3aEdpHH1SZN4f-3" edge="1">
          <mxGeometry width="50" height="50" relative="1" as="geometry">
            <mxPoint x="370" y="460" as="sourcePoint" />
            <mxPoint x="420" y="410" as="targetPoint" />
          </mxGeometry>
        </mxCell>
        <mxCell id="YggGBTT3aEdpHH1SZN4f-13" value="1" style="whiteSpace=wrap;html=1;aspect=fixed;fillColor=#f8cecc;strokeColor=#b85450;" parent="1" vertex="1">
          <mxGeometry x="324.5" y="440" width="20" height="20" as="geometry" />
        </mxCell>
        <mxCell id="YggGBTT3aEdpHH1SZN4f-14" value="0" style="whiteSpace=wrap;html=1;aspect=fixed;fillColor=#f8cecc;strokeColor=#b85450;" parent="1" vertex="1">
          <mxGeometry x="289.5" y="440" width="20" height="20" as="geometry" />
        </mxCell>
        <mxCell id="YggGBTT3aEdpHH1SZN4f-15" value="4" style="whiteSpace=wrap;html=1;aspect=fixed;fillColor=#f8cecc;strokeColor=#b85450;" parent="1" vertex="1">
          <mxGeometry x="430.5" y="440" width="20" height="20" as="geometry" />
        </mxCell>
        <mxCell id="YggGBTT3aEdpHH1SZN4f-16" value="3" style="whiteSpace=wrap;html=1;aspect=fixed;fillColor=#f8cecc;strokeColor=#b85450;" parent="1" vertex="1">
          <mxGeometry x="395.5" y="440" width="20" height="20" as="geometry" />
        </mxCell>
        <mxCell id="BqqK6h6ciMW0kYF_Xupo-2" value="5" style="text;html=1;align=center;verticalAlign=middle;resizable=0;points=[];autosize=1;strokeColor=none;fillColor=none;" vertex="1" parent="1">
          <mxGeometry x="115" y="348" width="30" height="30" as="geometry" />
        </mxCell>
        <mxCell id="BqqK6h6ciMW0kYF_Xupo-3" value="5/2=2.5=2" style="text;html=1;align=center;verticalAlign=middle;resizable=0;points=[];autosize=1;strokeColor=none;fillColor=none;" vertex="1" parent="1">
          <mxGeometry x="65" y="470" width="80" height="30" as="geometry" />
        </mxCell>
        <mxCell id="BqqK6h6ciMW0kYF_Xupo-4" value="-2 * d" style="text;html=1;align=center;verticalAlign=middle;resizable=0;points=[];autosize=1;strokeColor=none;fillColor=none;" vertex="1" parent="1">
          <mxGeometry x="175" y="578" width="50" height="30" as="geometry" />
        </mxCell>
        <mxCell id="BqqK6h6ciMW0kYF_Xupo-5" value="distance" style="text;html=1;align=center;verticalAlign=middle;resizable=0;points=[];autosize=1;strokeColor=none;fillColor=none;" vertex="1" parent="1">
          <mxGeometry x="461" y="520" width="70" height="30" as="geometry" />
        </mxCell>
      </root>
    </mxGraphModel>
  </diagram>
</mxfile>
